<svg xmlns="http://www.w3.org/2000/svg" width="1080" height="1440" viewBox="0 0 1080 1440">
  <defs>
    <style>
      text {
        font-family: "Microsoft YaHei", "PingFang SC", "Noto Sans CJK SC", Arial, sans-serif;
        dominant-baseline: alphabetic;
      }
      .mono {
        font-family: "Consolas", "Cascadia Mono", "Menlo", monospace;
      }
    </style>
  </defs>
  <rect x="0" y="0" width="1080" height="1440" rx="0" fill="#07111F" stroke="#07111F" stroke-width="0"/>
  <line x1="0" y1="0" x2="0" y2="1440" stroke="#0C1A2D" stroke-width="1" stroke-linecap="round"/>
  <line x1="90" y1="0" x2="90" y2="1440" stroke="#0C1A2D" stroke-width="1" stroke-linecap="round"/>
  <line x1="180" y1="0" x2="180" y2="1440" stroke="#0C1A2D" stroke-width="1" stroke-linecap="round"/>
  <line x1="270" y1="0" x2="270" y2="1440" stroke="#0C1A2D" stroke-width="1" stroke-linecap="round"/>
  <line x1="360" y1="0" x2="360" y2="1440" stroke="#0C1A2D" stroke-width="1" stroke-linecap="round"/>
  <line x1="450" y1="0" x2="450" y2="1440" stroke="#0C1A2D" stroke-width="1" stroke-linecap="round"/>
  <line x1="540" y1="0" x2="540" y2="1440" stroke="#0C1A2D" stroke-width="1" stroke-linecap="round"/>
  <line x1="630" y1="0" x2="630" y2="1440" stroke="#0C1A2D" stroke-width="1" stroke-linecap="round"/>
  <line x1="720" y1="0" x2="720" y2="1440" stroke="#0C1A2D" stroke-width="1" stroke-linecap="round"/>
  <line x1="810" y1="0" x2="810" y2="1440" stroke="#0C1A2D" stroke-width="1" stroke-linecap="round"/>
  <line x1="900" y1="0" x2="900" y2="1440" stroke="#0C1A2D" stroke-width="1" stroke-linecap="round"/>
  <line x1="990" y1="0" x2="990" y2="1440" stroke="#0C1A2D" stroke-width="1" stroke-linecap="round"/>
  <line x1="1080" y1="0" x2="1080" y2="1440" stroke="#0C1A2D" stroke-width="1" stroke-linecap="round"/>
  <line x1="0" y1="0" x2="1080" y2="0" stroke="#0C1A2D" stroke-width="1" stroke-linecap="round"/>
  <line x1="0" y1="90" x2="1080" y2="90" stroke="#0C1A2D" stroke-width="1" stroke-linecap="round"/>
  <line x1="0" y1="180" x2="1080" y2="180" stroke="#0C1A2D" stroke-width="1" stroke-linecap="round"/>
  <line x1="0" y1="270" x2="1080" y2="270" stroke="#0C1A2D" stroke-width="1" stroke-linecap="round"/>
  <line x1="0" y1="360" x2="1080" y2="360" stroke="#0C1A2D" stroke-width="1" stroke-linecap="round"/>
  <line x1="0" y1="450" x2="1080" y2="450" stroke="#0C1A2D" stroke-width="1" stroke-linecap="round"/>
  <line x1="0" y1="540" x2="1080" y2="540" stroke="#0C1A2D" stroke-width="1" stroke-linecap="round"/>
  <line x1="0" y1="630" x2="1080" y2="630" stroke="#0C1A2D" stroke-width="1" stroke-linecap="round"/>
  <line x1="0" y1="720" x2="1080" y2="720" stroke="#0C1A2D" stroke-width="1" stroke-linecap="round"/>
  <line x1="0" y1="810" x2="1080" y2="810" stroke="#0C1A2D" stroke-width="1" stroke-linecap="round"/>
  <line x1="0" y1="900" x2="1080" y2="900" stroke="#0C1A2D" stroke-width="1" stroke-linecap="round"/>
  <line x1="0" y1="990" x2="1080" y2="990" stroke="#0C1A2D" stroke-width="1" stroke-linecap="round"/>
  <line x1="0" y1="1080" x2="1080" y2="1080" stroke="#0C1A2D" stroke-width="1" stroke-linecap="round"/>
  <line x1="0" y1="1170" x2="1080" y2="1170" stroke="#0C1A2D" stroke-width="1" stroke-linecap="round"/>
  <line x1="0" y1="1260" x2="1080" y2="1260" stroke="#0C1A2D" stroke-width="1" stroke-linecap="round"/>
  <line x1="0" y1="1350" x2="1080" y2="1350" stroke="#0C1A2D" stroke-width="1" stroke-linecap="round"/>
  <line x1="0" y1="1440" x2="1080" y2="1440" stroke="#0C1A2D" stroke-width="1" stroke-linecap="round"/>
  <rect x="86" y="48" width="220" height="56" rx="28" fill="#0E2035" stroke="#24425F" stroke-width="2"/>
  <circle cx="120" cy="76" r="14" fill="#56D68A" stroke="none" stroke-width="0"/>
  <line x1="112" y1="76" x2="128" y2="76" stroke="#07111F" stroke-width="4" stroke-linecap="round"/>
  <line x1="120" y1="68" x2="120" y2="84" stroke="#07111F" stroke-width="4" stroke-linecap="round"/>
  <text x="146" y="88" font-size="28" fill="#F7FAFC" font-weight="700" text-anchor="start">TrainMedic</text>
  <text x="994" y="88" font-size="28" fill="#7D8CA5" font-weight="700" text-anchor="end">04/08</text>
  <text x="86" y="1386" font-size="24" fill="#7D8CA5" font-weight="400" text-anchor="start">Forward NaN 示例</text>
  <text x="86" y="190" font-size="56" fill="#F7FAFC" font-weight="800" text-anchor="start">不用再一层层 print</text>
  <rect x="86" y="300" width="908" height="252" rx="26" fill="#08111F" stroke="#23344D" stroke-width="2"/>
  <rect x="86" y="300" width="908" height="58" rx="26" fill="#0F1E33" stroke="#23344D" stroke-width="0"/>
  <circle cx="122" cy="329" r="9" fill="#FF5A6A" stroke="none" stroke-width="0"/>
  <circle cx="154" cy="329" r="9" fill="#F6C85F" stroke="none" stroke-width="0"/>
  <circle cx="186" cy="329" r="9" fill="#56D68A" stroke="none" stroke-width="0"/>
  <text class="mono" x="122" y="404" font-size="28" fill="#F7FAFC" font-weight="400" text-anchor="start">with watch_forward(model) as monitor:</text>
  <text class="mono" x="122" y="448" font-size="28" fill="#5CC8FF" font-weight="400" text-anchor="start">    output = model(inputs)</text>
  <text class="mono" x="122" y="492" font-size="28" fill="#7D8CA5" font-weight="400" text-anchor="start">print(format_diagnostics(monitor.diagnostics))</text>
  <rect x="86" y="626" width="908" height="430" rx="34" fill="#101B2F" stroke="#5A2631" stroke-width="2"/>
  <rect x="118" y="666" width="154" height="48" rx="24" fill="#3A1821" stroke="#6F2B37" stroke-width="2"/>
  <text x="195" y="700" font-size="28" fill="#FF5A6A" font-weight="800" text-anchor="middle">TM3001</text>
  <text x="132" y="772" font-size="34" fill="#F7FAFC" font-weight="700" text-anchor="start">ERROR</text>
  <text x="132" y="830" font-size="34" fill="#F7FAFC" font-weight="700" text-anchor="start">Forward output contains NaN</text>
  <text x="132" y="888" font-size="34" fill="#F7FAFC" font-weight="700" text-anchor="start">Object: invalid_log</text>
  <text x="132" y="946" font-size="34" fill="#F7FAFC" font-weight="700" text-anchor="start">tensor_path: output</text>
  <text x="132" y="1004" font-size="34" fill="#F7FAFC" font-weight="700" text-anchor="start">nan_count: 1</text>
  <rect x="86" y="1132" width="908" height="144" rx="34" fill="#112539" stroke="#2C536D" stroke-width="2"/>
  <text x="540" y="1188" font-size="30" fill="#B7C3D7" font-weight="700" text-anchor="middle">它报告的是首次观察到异常的位置，</text>
  <text x="540" y="1232" font-size="30" fill="#B7C3D7" font-weight="700" text-anchor="middle">不会武断地说这一定是根因。</text>
</svg>
