<svg xmlns="http://www.w3.org/2000/svg" width="1080" height="1440" viewBox="0 0 1080 1440">
  <defs>
    <style>
      text {
        font-family: "Microsoft YaHei", "PingFang SC", "Noto Sans CJK SC", Arial, sans-serif;
        dominant-baseline: alphabetic;
      }
      .mono {
        font-family: "Consolas", "Cascadia Mono", "Menlo", monospace;
      }
    </style>
  </defs>
  <rect x="0" y="0" width="1080" height="1440" rx="0" fill="#07111F" stroke="#07111F" stroke-width="0"/>
  <line x1="0" y1="0" x2="0" y2="1440" stroke="#0C1A2D" stroke-width="1" stroke-linecap="round"/>
  <line x1="90" y1="0" x2="90" y2="1440" stroke="#0C1A2D" stroke-width="1" stroke-linecap="round"/>
  <line x1="180" y1="0" x2="180" y2="1440" stroke="#0C1A2D" stroke-width="1" stroke-linecap="round"/>
  <line x1="270" y1="0" x2="270" y2="1440" stroke="#0C1A2D" stroke-width="1" stroke-linecap="round"/>
  <line x1="360" y1="0" x2="360" y2="1440" stroke="#0C1A2D" stroke-width="1" stroke-linecap="round"/>
  <line x1="450" y1="0" x2="450" y2="1440" stroke="#0C1A2D" stroke-width="1" stroke-linecap="round"/>
  <line x1="540" y1="0" x2="540" y2="1440" stroke="#0C1A2D" stroke-width="1" stroke-linecap="round"/>
  <line x1="630" y1="0" x2="630" y2="1440" stroke="#0C1A2D" stroke-width="1" stroke-linecap="round"/>
  <line x1="720" y1="0" x2="720" y2="1440" stroke="#0C1A2D" stroke-width="1" stroke-linecap="round"/>
  <line x1="810" y1="0" x2="810" y2="1440" stroke="#0C1A2D" stroke-width="1" stroke-linecap="round"/>
  <line x1="900" y1="0" x2="900" y2="1440" stroke="#0C1A2D" stroke-width="1" stroke-linecap="round"/>
  <line x1="990" y1="0" x2="990" y2="1440" stroke="#0C1A2D" stroke-width="1" stroke-linecap="round"/>
  <line x1="1080" y1="0" x2="1080" y2="1440" stroke="#0C1A2D" stroke-width="1" stroke-linecap="round"/>
  <line x1="0" y1="0" x2="1080" y2="0" stroke="#0C1A2D" stroke-width="1" stroke-linecap="round"/>
  <line x1="0" y1="90" x2="1080" y2="90" stroke="#0C1A2D" stroke-width="1" stroke-linecap="round"/>
  <line x1="0" y1="180" x2="1080" y2="180" stroke="#0C1A2D" stroke-width="1" stroke-linecap="round"/>
  <line x1="0" y1="270" x2="1080" y2="270" stroke="#0C1A2D" stroke-width="1" stroke-linecap="round"/>
  <line x1="0" y1="360" x2="1080" y2="360" stroke="#0C1A2D" stroke-width="1" stroke-linecap="round"/>
  <line x1="0" y1="450" x2="1080" y2="450" stroke="#0C1A2D" stroke-width="1" stroke-linecap="round"/>
  <line x1="0" y1="540" x2="1080" y2="540" stroke="#0C1A2D" stroke-width="1" stroke-linecap="round"/>
  <line x1="0" y1="630" x2="1080" y2="630" stroke="#0C1A2D" stroke-width="1" stroke-linecap="round"/>
  <line x1="0" y1="720" x2="1080" y2="720" stroke="#0C1A2D" stroke-width="1" stroke-linecap="round"/>
  <line x1="0" y1="810" x2="1080" y2="810" stroke="#0C1A2D" stroke-width="1" stroke-linecap="round"/>
  <line x1="0" y1="900" x2="1080" y2="900" stroke="#0C1A2D" stroke-width="1" stroke-linecap="round"/>
  <line x1="0" y1="990" x2="1080" y2="990" stroke="#0C1A2D" stroke-width="1" stroke-linecap="round"/>
  <line x1="0" y1="1080" x2="1080" y2="1080" stroke="#0C1A2D" stroke-width="1" stroke-linecap="round"/>
  <line x1="0" y1="1170" x2="1080" y2="1170" stroke="#0C1A2D" stroke-width="1" stroke-linecap="round"/>
  <line x1="0" y1="1260" x2="1080" y2="1260" stroke="#0C1A2D" stroke-width="1" stroke-linecap="round"/>
  <line x1="0" y1="1350" x2="1080" y2="1350" stroke="#0C1A2D" stroke-width="1" stroke-linecap="round"/>
  <line x1="0" y1="1440" x2="1080" y2="1440" stroke="#0C1A2D" stroke-width="1" stroke-linecap="round"/>
  <rect x="86" y="48" width="220" height="56" rx="28" fill="#0E2035" stroke="#24425F" stroke-width="2"/>
  <circle cx="120" cy="76" r="14" fill="#56D68A" stroke="none" stroke-width="0"/>
  <line x1="112" y1="76" x2="128" y2="76" stroke="#07111F" stroke-width="4" stroke-linecap="round"/>
  <line x1="120" y1="68" x2="120" y2="84" stroke="#07111F" stroke-width="4" stroke-linecap="round"/>
  <text x="146" y="88" font-size="28" fill="#F7FAFC" font-weight="700" text-anchor="start">TrainMedic</text>
  <text x="994" y="88" font-size="28" fill="#7D8CA5" font-weight="700" text-anchor="end">06/08</text>
  <text x="86" y="1386" font-size="24" fill="#7D8CA5" font-weight="400" text-anchor="start">诊断结果结构</text>
  <text x="86" y="190" font-size="52" fill="#F7FAFC" font-weight="800" text-anchor="start">不只是告诉你“出错了”</text>
  <rect x="86" y="300" width="908" height="680" rx="38" fill="#101B2F" stroke="#2D4869" stroke-width="2"/>
  <rect x="130" y="372" width="820" height="118" rx="28" fill="#13233B" stroke="#2A3A57" stroke-width="2"/>
  <circle cx="184" cy="431" r="22" fill="#5CC8FF" stroke="none" stroke-width="0"/>
  <text x="226" y="422" font-size="28" fill="#F7FAFC" font-weight="800" text-anchor="start">问题对象</text>
  <text class="mono" x="226" y="464" font-size="25" fill="#B7C3D7" font-weight="400" text-anchor="start">Object: decoder.weight</text>
  <rect x="130" y="516" width="820" height="118" rx="28" fill="#13233B" stroke="#2A3A57" stroke-width="2"/>
  <circle cx="184" cy="575" r="22" fill="#56D68A" stroke="none" stroke-width="0"/>
  <text x="226" y="566" font-size="28" fill="#F7FAFC" font-weight="800" text-anchor="start">观测证据</text>
  <text class="mono" x="226" y="608" font-size="25" fill="#B7C3D7" font-weight="400" text-anchor="start">requires_grad: true</text>
  <rect x="130" y="660" width="820" height="118" rx="28" fill="#13233B" stroke="#2A3A57" stroke-width="2"/>
  <circle cx="184" cy="719" r="22" fill="#F6C85F" stroke="none" stroke-width="0"/>
  <text x="226" y="710" font-size="28" fill="#F7FAFC" font-weight="800" text-anchor="start">可能原因</text>
  <text x="226" y="752" font-size="25" fill="#B7C3D7" font-weight="400" text-anchor="start">optimizer 创建时漏掉模块</text>
  <rect x="130" y="804" width="820" height="118" rx="28" fill="#13233B" stroke="#2A3A57" stroke-width="2"/>
  <circle cx="184" cy="863" r="22" fill="#A78BFA" stroke="none" stroke-width="0"/>
  <text x="226" y="854" font-size="28" fill="#F7FAFC" font-weight="800" text-anchor="start">排查建议</text>
  <text x="226" y="896" font-size="25" fill="#B7C3D7" font-weight="400" text-anchor="start">检查 optimizer 参数来源</text>
  <rect x="86" y="1066" width="908" height="174" rx="36" fill="#102635" stroke="#2C536D" stroke-width="2"/>
  <text x="540" y="1132" font-size="32" fill="#F7FAFC" font-weight="700" text-anchor="middle">每个结论都尽量附带可验证证据，</text>
  <text x="540" y="1180" font-size="32" fill="#F7FAFC" font-weight="700" text-anchor="middle">而不是只给出模糊猜测。</text>
</svg>
