<svg xmlns="http://www.w3.org/2000/svg" width="1080" height="1440" viewBox="0 0 1080 1440">
  <defs>
    <style>
      text {
        font-family: "Microsoft YaHei", "PingFang SC", "Noto Sans CJK SC", Arial, sans-serif;
        dominant-baseline: alphabetic;
      }
      .mono {
        font-family: "Consolas", "Cascadia Mono", "Menlo", monospace;
      }
    </style>
  </defs>
  <rect x="0" y="0" width="1080" height="1440" rx="0" fill="#07111F" stroke="#07111F" stroke-width="0"/>
  <line x1="0" y1="0" x2="0" y2="1440" stroke="#0C1A2D" stroke-width="1" stroke-linecap="round"/>
  <line x1="90" y1="0" x2="90" y2="1440" stroke="#0C1A2D" stroke-width="1" stroke-linecap="round"/>
  <line x1="180" y1="0" x2="180" y2="1440" stroke="#0C1A2D" stroke-width="1" stroke-linecap="round"/>
  <line x1="270" y1="0" x2="270" y2="1440" stroke="#0C1A2D" stroke-width="1" stroke-linecap="round"/>
  <line x1="360" y1="0" x2="360" y2="1440" stroke="#0C1A2D" stroke-width="1" stroke-linecap="round"/>
  <line x1="450" y1="0" x2="450" y2="1440" stroke="#0C1A2D" stroke-width="1" stroke-linecap="round"/>
  <line x1="540" y1="0" x2="540" y2="1440" stroke="#0C1A2D" stroke-width="1" stroke-linecap="round"/>
  <line x1="630" y1="0" x2="630" y2="1440" stroke="#0C1A2D" stroke-width="1" stroke-linecap="round"/>
  <line x1="720" y1="0" x2="720" y2="1440" stroke="#0C1A2D" stroke-width="1" stroke-linecap="round"/>
  <line x1="810" y1="0" x2="810" y2="1440" stroke="#0C1A2D" stroke-width="1" stroke-linecap="round"/>
  <line x1="900" y1="0" x2="900" y2="1440" stroke="#0C1A2D" stroke-width="1" stroke-linecap="round"/>
  <line x1="990" y1="0" x2="990" y2="1440" stroke="#0C1A2D" stroke-width="1" stroke-linecap="round"/>
  <line x1="1080" y1="0" x2="1080" y2="1440" stroke="#0C1A2D" stroke-width="1" stroke-linecap="round"/>
  <line x1="0" y1="0" x2="1080" y2="0" stroke="#0C1A2D" stroke-width="1" stroke-linecap="round"/>
  <line x1="0" y1="90" x2="1080" y2="90" stroke="#0C1A2D" stroke-width="1" stroke-linecap="round"/>
  <line x1="0" y1="180" x2="1080" y2="180" stroke="#0C1A2D" stroke-width="1" stroke-linecap="round"/>
  <line x1="0" y1="270" x2="1080" y2="270" stroke="#0C1A2D" stroke-width="1" stroke-linecap="round"/>
  <line x1="0" y1="360" x2="1080" y2="360" stroke="#0C1A2D" stroke-width="1" stroke-linecap="round"/>
  <line x1="0" y1="450" x2="1080" y2="450" stroke="#0C1A2D" stroke-width="1" stroke-linecap="round"/>
  <line x1="0" y1="540" x2="1080" y2="540" stroke="#0C1A2D" stroke-width="1" stroke-linecap="round"/>
  <line x1="0" y1="630" x2="1080" y2="630" stroke="#0C1A2D" stroke-width="1" stroke-linecap="round"/>
  <line x1="0" y1="720" x2="1080" y2="720" stroke="#0C1A2D" stroke-width="1" stroke-linecap="round"/>
  <line x1="0" y1="810" x2="1080" y2="810" stroke="#0C1A2D" stroke-width="1" stroke-linecap="round"/>
  <line x1="0" y1="900" x2="1080" y2="900" stroke="#0C1A2D" stroke-width="1" stroke-linecap="round"/>
  <line x1="0" y1="990" x2="1080" y2="990" stroke="#0C1A2D" stroke-width="1" stroke-linecap="round"/>
  <line x1="0" y1="1080" x2="1080" y2="1080" stroke="#0C1A2D" stroke-width="1" stroke-linecap="round"/>
  <line x1="0" y1="1170" x2="1080" y2="1170" stroke="#0C1A2D" stroke-width="1" stroke-linecap="round"/>
  <line x1="0" y1="1260" x2="1080" y2="1260" stroke="#0C1A2D" stroke-width="1" stroke-linecap="round"/>
  <line x1="0" y1="1350" x2="1080" y2="1350" stroke="#0C1A2D" stroke-width="1" stroke-linecap="round"/>
  <line x1="0" y1="1440" x2="1080" y2="1440" stroke="#0C1A2D" stroke-width="1" stroke-linecap="round"/>
  <rect x="86" y="48" width="220" height="56" rx="28" fill="#0E2035" stroke="#24425F" stroke-width="2"/>
  <circle cx="120" cy="76" r="14" fill="#56D68A" stroke="none" stroke-width="0"/>
  <line x1="112" y1="76" x2="128" y2="76" stroke="#07111F" stroke-width="4" stroke-linecap="round"/>
  <line x1="120" y1="68" x2="120" y2="84" stroke="#07111F" stroke-width="4" stroke-linecap="round"/>
  <text x="146" y="88" font-size="28" fill="#F7FAFC" font-weight="700" text-anchor="start">TrainMedic</text>
  <text x="994" y="88" font-size="28" fill="#7D8CA5" font-weight="700" text-anchor="end">08/08</text>
  <text x="86" y="1386" font-size="24" fill="#7D8CA5" font-weight="400" text-anchor="start">邀请真实反馈</text>
  <text x="86" y="190" font-size="62" fill="#F7FAFC" font-weight="800" text-anchor="start">比起 Star</text>
  <text x="86" y="268" font-size="62" fill="#F7FAFC" font-weight="800" text-anchor="start">我更需要真实 Bug</text>
  <rect x="86" y="398" width="908" height="332" rx="32" fill="#101B2F" stroke="#2A3A57" stroke-width="2"/>
  <rect x="86" y="398" width="10" height="332" rx="5" fill="#FF5A6A" stroke="#FF5A6A" stroke-width="0"/>
  <text x="122" y="454" font-size="32" fill="#F7FAFC" font-weight="700" text-anchor="start">想收集这些反馈</text>
  <text x="122" y="502" font-size="25" fill="#B7C3D7" font-weight="400" text-anchor="start">你遇到过哪些难排查的 PyTorch 问题？</text>
  <text x="122" y="540" font-size="25" fill="#B7C3D7" font-weight="400" text-anchor="start">它有没有误报？</text>
  <text x="122" y="578" font-size="25" fill="#B7C3D7" font-weight="400" text-anchor="start">哪些模型或 optimizer 还不能支持？</text>
  <rect x="86" y="802" width="908" height="260" rx="38" fill="#0E2035" stroke="#2B506E" stroke-width="2"/>
  <text x="540" y="870" font-size="34" fill="#B7C3D7" font-weight="700" text-anchor="middle">GitHub 搜索：</text>
  <text class="mono" x="540" y="952" font-size="48" fill="#56D68A" font-weight="800" text-anchor="middle">yiboban/TrainMedic</text>
  <circle cx="320" cy="1008" r="14" fill="#5CC8FF" stroke="none" stroke-width="0"/>
  <circle cx="760" cy="1008" r="14" fill="#5CC8FF" stroke="none" stroke-width="0"/>
  <line x1="340" y1="1008" x2="740" y2="1008" stroke="#5CC8FF" stroke-width="4" stroke-linecap="round"/>
  <rect x="86" y="1144" width="908" height="110" rx="34" fill="#17243A" stroke="#314766" stroke-width="2"/>
  <text x="540" y="1212" font-size="32" fill="#F7FAFC" font-weight="700" text-anchor="middle">欢迎试用、提 Issue、提交最小复现</text>
</svg>
